<?xml version="1.0" encoding="UTF-8" ?>
<!DOCTYPE svg PUBLIC "-//W3C//DTD SVG 1.1//EN" "http://www.w3.org/Graphics/SVG/1.1/DTD/svg11.dtd">
<svg width="1334pt" height="734pt" viewBox="0 0 1334 734" version="1.1" xmlns="http://www.w3.org/2000/svg">
<path fill="#000000" stroke="#000000" stroke-width="0.09375" opacity="1.00" d=" M 105.45 51.31 C 115.64 43.05 125.43 33.61 138.00 29.10 C 145.60 28.38 153.30 28.98 160.93 28.52 C 535.32 28.51 909.71 28.50 1284.09 28.53 C 1291.77 30.62 1298.35 35.77 1304.72 40.42 C 1304.74 231.41 1304.76 422.40 1304.71 613.39 C 1277.44 639.96 1248.14 664.32 1218.92 688.68 C 1211.21 694.85 1203.56 701.90 1193.91 704.71 C 812.61 704.77 431.31 704.72 50.01 704.74 C 47.37 704.59 44.47 705.29 42.04 703.94 C 37.33 701.44 32.74 698.66 28.49 695.43 C 28.54 503.27 28.51 311.12 28.50 118.97 C 53.01 95.14 79.49 73.50 105.45 51.31 Z" />
</svg>
