<?xml version="1.0" encoding="UTF-8" ?>
<!DOCTYPE svg PUBLIC "-//W3C//DTD SVG 1.1//EN" "http://www.w3.org/Graphics/SVG/1.1/DTD/svg11.dtd">
<svg width="1334pt" height="734pt" viewBox="0 0 1334 734" version="1.1" xmlns="http://www.w3.org/2000/svg">
<path fill="#000000" stroke="#000000" stroke-width="0.09375" opacity="1.00" d=" M 0.00 0.00 L 1334.00 0.00 L 1334.00 734.00 L 0.00 734.00 L 0.00 0.00 M 132.23 7.42 C 123.49 10.08 115.57 14.87 108.29 20.29 C 98.48 27.74 89.09 35.74 79.71 43.72 C 55.14 64.73 30.13 85.32 7.36 108.32 C 6.20 109.17 5.83 110.55 5.99 111.93 C 6.04 309.92 5.95 507.90 6.03 705.89 C 15.94 714.41 26.76 722.39 39.03 727.12 C 139.34 727.43 239.68 727.16 340.00 727.25 C 625.34 727.25 910.69 727.25 1196.03 727.25 C 1198.38 727.31 1200.62 726.45 1202.80 725.65 C 1210.99 722.52 1218.44 717.71 1225.28 712.26 C 1239.03 701.42 1252.27 689.96 1265.68 678.70 C 1282.61 664.34 1299.38 649.78 1315.31 634.31 C 1319.27 630.22 1324.02 626.70 1327.16 621.93 C 1327.37 535.96 1327.19 449.98 1327.25 364.00 C 1327.23 253.33 1327.29 142.66 1327.22 31.99 C 1325.69 27.41 1320.67 24.92 1317.13 21.88 C 1309.16 15.80 1300.67 10.20 1291.21 6.77 C 1287.95 5.50 1284.39 6.13 1281.00 6.00 C 938.33 6.01 595.67 6.00 253.00 6.00 C 217.34 6.11 181.66 5.75 146.00 6.25 C 141.40 6.33 136.68 6.00 132.23 7.42 Z" />
</svg>
