<?xml version="1.0" encoding="UTF-8" ?>
<!DOCTYPE svg PUBLIC "-//W3C//DTD SVG 1.1//EN" "http://www.w3.org/Graphics/SVG/1.1/DTD/svg11.dtd">
<svg width="1550pt" height="853pt" viewBox="0 0 1550 853" version="1.1" xmlns="http://www.w3.org/2000/svg">
<path fill="#000000" stroke="#000000" stroke-width="0.09375" opacity="1.00" d=" M 137.51 35.55 C 144.10 30.98 151.16 26.92 158.79 24.37 C 167.83 23.53 176.96 24.21 186.03 23.75 C 622.33 23.75 1058.63 23.74 1494.93 23.76 C 1496.92 23.78 1498.66 24.96 1500.47 25.71 C 1509.71 30.00 1517.99 36.01 1525.92 42.35 C 1526.10 267.24 1525.95 492.14 1526.00 717.04 C 1499.86 743.01 1471.81 766.95 1443.60 790.61 C 1433.50 799.13 1423.41 807.65 1413.02 815.82 C 1406.73 820.95 1399.58 825.00 1392.10 828.11 C 1389.86 829.09 1387.34 828.53 1385.00 828.67 C 979.01 828.66 573.01 828.67 167.01 828.67 C 127.50 828.60 87.97 828.80 48.46 828.56 C 39.56 824.57 31.36 819.12 23.75 813.04 C 23.69 586.88 23.86 360.72 23.67 134.56 C 48.29 109.76 75.36 87.56 101.88 64.84 C 113.58 54.86 125.26 44.84 137.51 35.55 Z" />
</svg>
