<?xml version="1.0" encoding="UTF-8" ?>
<!DOCTYPE svg PUBLIC "-//W3C//DTD SVG 1.1//EN" "http://www.w3.org/Graphics/SVG/1.1/DTD/svg11.dtd">
<svg width="1024pt" height="563pt" viewBox="0 0 1024 563" version="1.1" xmlns="http://www.w3.org/2000/svg">
<path fill="#000000" stroke="#000000" stroke-width="0.09375" opacity="1.00" d=" M 0.00 0.00 L 1024.00 0.00 L 1024.00 563.00 L 0.00 563.00 L 0.00 0.00 M 498.48 148.67 C 480.39 150.11 462.61 154.75 446.02 162.06 C 420.19 173.59 397.37 192.42 382.44 216.56 C 370.37 235.76 363.78 258.32 363.60 280.99 C 363.57 304.25 370.34 327.45 382.84 347.07 C 394.75 366.07 411.58 381.79 430.88 393.12 C 462.83 411.96 501.43 418.65 537.97 412.83 C 573.95 407.08 608.34 388.90 631.49 360.48 C 653.51 334.02 664.44 298.15 659.00 263.97 C 654.16 228.82 632.77 197.17 604.00 176.92 C 573.70 155.27 535.48 145.62 498.48 148.67 Z" />
<path fill="#383838" stroke="#383838" stroke-width="0.09375" opacity="1.00" d=" M 498.48 148.67 C 535.48 145.62 573.70 155.27 604.00 176.92 C 632.77 197.17 654.16 228.82 659.00 263.97 C 664.44 298.15 653.51 334.02 631.49 360.48 C 608.34 388.90 573.95 407.08 537.97 412.83 C 501.43 418.65 462.83 411.96 430.88 393.12 C 411.58 381.79 394.75 366.07 382.84 347.07 C 370.34 327.45 363.57 304.25 363.60 280.99 C 363.78 258.32 370.37 235.76 382.44 216.56 C 397.37 192.42 420.19 173.59 446.02 162.06 C 462.61 154.75 480.39 150.11 498.48 148.67 M 502.24 175.18 C 474.80 177.10 447.94 188.02 427.54 206.56 C 411.02 221.56 398.96 241.75 394.97 263.81 C 390.12 288.38 395.86 314.57 409.58 335.41 C 428.02 363.70 459.69 382.16 492.89 386.77 C 528.18 392.14 565.87 382.42 593.24 359.25 C 609.89 345.23 622.61 326.16 627.76 304.91 C 631.45 290.55 631.74 275.32 628.41 260.87 C 624.09 240.39 612.72 221.72 597.48 207.51 C 572.19 183.87 536.57 172.47 502.24 175.18 Z" />
<path fill="#000000" stroke="#000000" stroke-width="0.09375" opacity="1.00" d=" M 502.24 175.18 C 536.57 172.47 572.19 183.87 597.48 207.51 C 612.72 221.72 624.09 240.39 628.41 260.87 C 631.74 275.32 631.45 290.55 627.76 304.91 C 622.61 326.16 609.89 345.23 593.24 359.25 C 565.87 382.42 528.18 392.14 492.89 386.77 C 459.69 382.16 428.02 363.70 409.58 335.41 C 395.86 314.57 390.12 288.38 394.97 263.81 C 398.96 241.75 411.02 221.56 427.54 206.56 C 447.94 188.02 474.80 177.10 502.24 175.18 M 508.38 228.52 C 502.68 229.78 497.28 234.76 497.37 240.91 C 497.12 249.68 497.55 258.46 497.24 267.23 C 496.97 267.47 496.43 267.96 496.16 268.20 C 486.11 268.57 476.03 268.06 465.98 268.38 C 459.24 268.58 452.91 274.17 452.58 281.03 C 452.31 288.24 458.90 294.42 465.93 294.61 C 476.00 294.94 486.09 294.43 496.15 294.80 C 496.42 295.04 496.97 295.50 497.24 295.73 C 497.55 304.49 497.13 313.26 497.36 322.03 C 497.30 329.49 504.91 335.12 512.00 334.83 C 519.08 335.12 526.68 329.50 526.64 322.04 C 526.87 313.28 526.45 304.50 526.76 295.74 C 527.04 295.50 527.59 295.04 527.86 294.80 C 535.24 294.48 542.65 294.80 550.04 294.71 C 554.70 294.57 559.74 295.35 564.00 292.99 C 569.30 290.40 572.83 283.88 570.89 278.09 C 569.22 272.58 563.80 268.63 558.10 268.39 C 548.02 268.06 537.92 268.57 527.85 268.20 C 527.58 267.96 527.03 267.49 526.76 267.25 C 526.36 257.88 527.07 248.47 526.47 239.10 C 525.09 231.14 515.86 226.64 508.38 228.52 Z" />
<path fill="#383838" stroke="#383838" stroke-width="0.09375" opacity="1.00" d=" M 508.38 228.52 C 515.86 226.64 525.09 231.14 526.47 239.10 C 527.07 248.47 526.36 257.88 526.76 267.25 C 527.03 267.49 527.58 267.96 527.85 268.20 C 537.92 268.57 548.02 268.06 558.10 268.39 C 563.80 268.63 569.22 272.58 570.89 278.09 C 572.83 283.88 569.30 290.40 564.00 292.99 C 559.74 295.35 554.70 294.57 550.04 294.71 C 542.65 294.80 535.24 294.48 527.86 294.80 C 527.59 295.04 527.04 295.50 526.76 295.74 C 526.45 304.50 526.87 313.28 526.64 322.04 C 526.68 329.50 519.08 335.12 512.00 334.83 C 504.91 335.12 497.30 329.49 497.36 322.03 C 497.13 313.26 497.55 304.49 497.24 295.73 C 496.97 295.50 496.42 295.04 496.15 294.80 C 486.09 294.43 476.00 294.94 465.93 294.61 C 458.90 294.42 452.31 288.24 452.58 281.03 C 452.91 274.17 459.24 268.58 465.98 268.38 C 476.03 268.06 486.11 268.57 496.16 268.20 C 496.43 267.96 496.97 267.47 497.24 267.23 C 497.55 258.46 497.12 249.68 497.37 240.91 C 497.28 234.76 502.68 229.78 508.38 228.52 Z" />
</svg>
